# xmcd CD database file
#
# Track frame offsets:
#	150
#	11445
#	23592
#	32452
#	49845
#	59357
#	68950
#	81413
#	92180
#	106217
#	120310
#	130854
#	144137
#	157953
#
# Disc length: 2449 seconds
#
# Revision: 0
# Processed by: cddbd v1.4PL0 Copyright (c) Steve Scherf et al.
# Submitted via: CDex 1.50beta10
#
DISCID=a8098f0e
DTITLE=luce - country bal
DYEAR=1900
DGENRE=Country
TTITLE0=kone
TTITLE1=vanok
TTITLE2=tanec skokan dzin
TTITLE3=spomienka na mamu
TTITLE4=tulak pepo
TTITLE5=criepky stastia
TTITLE6=zabudnuta cesta
TTITLE7=prvy bozk
TTITLE8=divoka jean
TTITLE9=rieka
TTITLE10=country bal
TTITLE11=benatska noc
TTITLE12=priroda
TTITLE13=zuzana
EXTD=
EXTT0=
EXTT1=
EXTT2=
EXTT3=
EXTT4=
EXTT5=
EXTT6=
EXTT7=
EXTT8=
EXTT9=
EXTT10=
EXTT11=
EXTT12=
EXTT13=
PLAYORDER=
